<mxfile host="app.diagrams.net" modified="2023-10-14T08:26:23.894Z" agent="Mozilla/5.0 (Windows NT 10.0; Win64; x64) AppleWebKit/537.36 (KHTML, like Gecko) Chrome/97.0.4692.99 Safari/537.36" etag="vQStNnFC8kdl9XLtvFpv" version="21.1.5" type="device">
  <diagram name="Страница 1" id="-snwBX7xXnoAWqSkyO9B">
    <mxGraphModel dx="1383" dy="771" grid="1" gridSize="10" guides="1" tooltips="1" connect="1" arrows="1" fold="1" page="1" pageScale="1" pageWidth="827" pageHeight="1169" math="0" shadow="0">
      <root>
        <mxCell id="0" />
        <mxCell id="1" parent="0" />
        <mxCell id="2fpuWWFfcm2B_iFlqA9m-12" style="edgeStyle=orthogonalEdgeStyle;rounded=0;orthogonalLoop=1;jettySize=auto;html=1;entryX=0;entryY=0.5;entryDx=0;entryDy=0;fillColor=#d5e8d4;strokeColor=#82b366;" edge="1" parent="1" source="2fpuWWFfcm2B_iFlqA9m-4" target="2fpuWWFfcm2B_iFlqA9m-8">
          <mxGeometry relative="1" as="geometry" />
        </mxCell>
        <mxCell id="2fpuWWFfcm2B_iFlqA9m-13" style="edgeStyle=orthogonalEdgeStyle;rounded=0;orthogonalLoop=1;jettySize=auto;html=1;entryX=0;entryY=0.5;entryDx=0;entryDy=0;fillColor=#d5e8d4;strokeColor=#82b366;" edge="1" parent="1" source="2fpuWWFfcm2B_iFlqA9m-4" target="2fpuWWFfcm2B_iFlqA9m-9">
          <mxGeometry relative="1" as="geometry" />
        </mxCell>
        <mxCell id="2fpuWWFfcm2B_iFlqA9m-14" style="edgeStyle=orthogonalEdgeStyle;rounded=0;orthogonalLoop=1;jettySize=auto;html=1;entryX=0;entryY=0.5;entryDx=0;entryDy=0;fillColor=#d5e8d4;strokeColor=#82b366;" edge="1" parent="1" source="2fpuWWFfcm2B_iFlqA9m-4" target="2fpuWWFfcm2B_iFlqA9m-10">
          <mxGeometry relative="1" as="geometry">
            <Array as="points">
              <mxPoint x="180" y="455" />
              <mxPoint x="180" y="520" />
            </Array>
          </mxGeometry>
        </mxCell>
        <mxCell id="2fpuWWFfcm2B_iFlqA9m-23" style="edgeStyle=orthogonalEdgeStyle;rounded=0;orthogonalLoop=1;jettySize=auto;html=1;entryX=0;entryY=0.5;entryDx=0;entryDy=0;fillColor=#d5e8d4;strokeColor=#82b366;" edge="1" parent="1" source="2fpuWWFfcm2B_iFlqA9m-4" target="2fpuWWFfcm2B_iFlqA9m-21">
          <mxGeometry relative="1" as="geometry">
            <Array as="points">
              <mxPoint x="190" y="455" />
              <mxPoint x="190" y="490" />
              <mxPoint x="330" y="490" />
            </Array>
          </mxGeometry>
        </mxCell>
        <mxCell id="2fpuWWFfcm2B_iFlqA9m-4" value="Незарегистрированный&lt;br&gt;пользователь" style="shape=umlActor;verticalLabelPosition=bottom;verticalAlign=top;html=1;outlineConnect=0;fillColor=#d5e8d4;strokeColor=#82b366;" vertex="1" parent="1">
          <mxGeometry x="100" y="430" width="20" height="50" as="geometry" />
        </mxCell>
        <mxCell id="2fpuWWFfcm2B_iFlqA9m-8" value="&lt;font style=&quot;font-size: 11px;&quot;&gt;Регистрация&lt;/font&gt;" style="ellipse;whiteSpace=wrap;html=1;" vertex="1" parent="1">
          <mxGeometry x="210" y="380" width="70" height="40" as="geometry" />
        </mxCell>
        <mxCell id="2fpuWWFfcm2B_iFlqA9m-9" value="&lt;font style=&quot;font-size: 11px;&quot;&gt;Просмотр товара&lt;/font&gt;" style="ellipse;whiteSpace=wrap;html=1;" vertex="1" parent="1">
          <mxGeometry x="210" y="430" width="70" height="50" as="geometry" />
        </mxCell>
        <mxCell id="2fpuWWFfcm2B_iFlqA9m-10" value="Фильтрация и поиск" style="ellipse;whiteSpace=wrap;html=1;fontSize=11;" vertex="1" parent="1">
          <mxGeometry x="210" y="500" width="80" height="60" as="geometry" />
        </mxCell>
        <mxCell id="2fpuWWFfcm2B_iFlqA9m-29" style="edgeStyle=orthogonalEdgeStyle;rounded=0;orthogonalLoop=1;jettySize=auto;html=1;fillColor=#f8cecc;strokeColor=#b85450;" edge="1" parent="1" source="2fpuWWFfcm2B_iFlqA9m-15" target="2fpuWWFfcm2B_iFlqA9m-20">
          <mxGeometry relative="1" as="geometry" />
        </mxCell>
        <mxCell id="2fpuWWFfcm2B_iFlqA9m-30" style="edgeStyle=orthogonalEdgeStyle;rounded=0;orthogonalLoop=1;jettySize=auto;html=1;entryX=1;entryY=0.5;entryDx=0;entryDy=0;fillColor=#f8cecc;strokeColor=#b85450;" edge="1" parent="1" source="2fpuWWFfcm2B_iFlqA9m-15" target="2fpuWWFfcm2B_iFlqA9m-19">
          <mxGeometry relative="1" as="geometry" />
        </mxCell>
        <mxCell id="2fpuWWFfcm2B_iFlqA9m-31" style="edgeStyle=orthogonalEdgeStyle;rounded=0;orthogonalLoop=1;jettySize=auto;html=1;entryX=1.038;entryY=0.443;entryDx=0;entryDy=0;entryPerimeter=0;fillColor=#f8cecc;strokeColor=#b85450;" edge="1" parent="1" source="2fpuWWFfcm2B_iFlqA9m-15" target="2fpuWWFfcm2B_iFlqA9m-22">
          <mxGeometry relative="1" as="geometry" />
        </mxCell>
        <mxCell id="2fpuWWFfcm2B_iFlqA9m-32" style="edgeStyle=orthogonalEdgeStyle;rounded=0;orthogonalLoop=1;jettySize=auto;html=1;entryX=1;entryY=0.5;entryDx=0;entryDy=0;fillColor=#f8cecc;strokeColor=#b85450;" edge="1" parent="1" source="2fpuWWFfcm2B_iFlqA9m-15" target="2fpuWWFfcm2B_iFlqA9m-18">
          <mxGeometry relative="1" as="geometry" />
        </mxCell>
        <mxCell id="2fpuWWFfcm2B_iFlqA9m-33" style="edgeStyle=orthogonalEdgeStyle;rounded=0;orthogonalLoop=1;jettySize=auto;html=1;entryX=1;entryY=0.5;entryDx=0;entryDy=0;fillColor=#f8cecc;strokeColor=#b85450;" edge="1" parent="1" source="2fpuWWFfcm2B_iFlqA9m-15" target="2fpuWWFfcm2B_iFlqA9m-21">
          <mxGeometry relative="1" as="geometry">
            <Array as="points">
              <mxPoint x="625" y="540" />
              <mxPoint x="505" y="540" />
              <mxPoint x="505" y="480" />
            </Array>
          </mxGeometry>
        </mxCell>
        <mxCell id="2fpuWWFfcm2B_iFlqA9m-34" style="edgeStyle=orthogonalEdgeStyle;rounded=0;orthogonalLoop=1;jettySize=auto;html=1;entryX=1;entryY=0.5;entryDx=0;entryDy=0;fillColor=#f8cecc;strokeColor=#b85450;" edge="1" parent="1" source="2fpuWWFfcm2B_iFlqA9m-15" target="2fpuWWFfcm2B_iFlqA9m-9">
          <mxGeometry relative="1" as="geometry">
            <Array as="points">
              <mxPoint x="310" y="615" />
              <mxPoint x="310" y="455" />
            </Array>
          </mxGeometry>
        </mxCell>
        <mxCell id="2fpuWWFfcm2B_iFlqA9m-35" style="edgeStyle=orthogonalEdgeStyle;rounded=0;orthogonalLoop=1;jettySize=auto;html=1;fillColor=#f8cecc;strokeColor=#b85450;" edge="1" parent="1" source="2fpuWWFfcm2B_iFlqA9m-15" target="2fpuWWFfcm2B_iFlqA9m-10">
          <mxGeometry relative="1" as="geometry" />
        </mxCell>
        <mxCell id="2fpuWWFfcm2B_iFlqA9m-15" value="Зарегистрированный&amp;nbsp;&lt;br&gt;пользователь&lt;span style=&quot;white-space: pre;&quot;&gt;	&lt;/span&gt;&lt;br&gt;" style="shape=umlActor;verticalLabelPosition=bottom;verticalAlign=top;html=1;outlineConnect=0;fillColor=#f8cecc;strokeColor=#b85450;" vertex="1" parent="1">
          <mxGeometry x="610" y="585" width="30" height="60" as="geometry" />
        </mxCell>
        <mxCell id="2fpuWWFfcm2B_iFlqA9m-18" value="Вход" style="ellipse;whiteSpace=wrap;html=1;fontSize=11;" vertex="1" parent="1">
          <mxGeometry x="460" y="720" width="50" height="40" as="geometry" />
        </mxCell>
        <mxCell id="2fpuWWFfcm2B_iFlqA9m-19" value="Смена пароля" style="ellipse;whiteSpace=wrap;html=1;fontSize=11;" vertex="1" parent="1">
          <mxGeometry x="469" y="550" width="61" height="50" as="geometry" />
        </mxCell>
        <mxCell id="2fpuWWFfcm2B_iFlqA9m-20" value="Добавление товара в корзину" style="ellipse;whiteSpace=wrap;html=1;fontSize=11;" vertex="1" parent="1">
          <mxGeometry x="530" y="460" width="80" height="60" as="geometry" />
        </mxCell>
        <mxCell id="2fpuWWFfcm2B_iFlqA9m-21" value="Оформить монтаж" style="ellipse;whiteSpace=wrap;html=1;fontSize=11;" vertex="1" parent="1">
          <mxGeometry x="360" y="460" width="70" height="60" as="geometry" />
        </mxCell>
        <mxCell id="2fpuWWFfcm2B_iFlqA9m-22" value="Проконсультир&lt;br style=&quot;font-size: 11px;&quot;&gt;оваться" style="ellipse;whiteSpace=wrap;html=1;fontSize=11;" vertex="1" parent="1">
          <mxGeometry x="430" y="630" width="80" height="70" as="geometry" />
        </mxCell>
        <mxCell id="2fpuWWFfcm2B_iFlqA9m-39" style="edgeStyle=orthogonalEdgeStyle;rounded=0;orthogonalLoop=1;jettySize=auto;html=1;entryX=0;entryY=0.5;entryDx=0;entryDy=0;fillColor=#ffe6cc;strokeColor=#d79b00;" edge="1" parent="1" source="2fpuWWFfcm2B_iFlqA9m-36" target="2fpuWWFfcm2B_iFlqA9m-18">
          <mxGeometry relative="1" as="geometry">
            <Array as="points">
              <mxPoint x="410" y="680" />
              <mxPoint x="410" y="740" />
            </Array>
          </mxGeometry>
        </mxCell>
        <mxCell id="2fpuWWFfcm2B_iFlqA9m-41" style="edgeStyle=orthogonalEdgeStyle;rounded=0;orthogonalLoop=1;jettySize=auto;html=1;entryX=1;entryY=0.5;entryDx=0;entryDy=0;fillColor=#ffe6cc;strokeColor=#d79b00;" edge="1" parent="1" source="2fpuWWFfcm2B_iFlqA9m-36" target="2fpuWWFfcm2B_iFlqA9m-10">
          <mxGeometry relative="1" as="geometry" />
        </mxCell>
        <mxCell id="2fpuWWFfcm2B_iFlqA9m-42" style="edgeStyle=orthogonalEdgeStyle;rounded=0;orthogonalLoop=1;jettySize=auto;html=1;entryX=1;entryY=0.5;entryDx=0;entryDy=0;fillColor=#ffe6cc;strokeColor=#d79b00;exitX=0.5;exitY=0.5;exitDx=0;exitDy=0;exitPerimeter=0;" edge="1" parent="1" source="2fpuWWFfcm2B_iFlqA9m-36" target="2fpuWWFfcm2B_iFlqA9m-9">
          <mxGeometry relative="1" as="geometry">
            <Array as="points">
              <mxPoint x="340" y="680" />
              <mxPoint x="340" y="455" />
            </Array>
          </mxGeometry>
        </mxCell>
        <mxCell id="2fpuWWFfcm2B_iFlqA9m-43" style="edgeStyle=orthogonalEdgeStyle;rounded=0;orthogonalLoop=1;jettySize=auto;html=1;entryX=0;entryY=0.5;entryDx=0;entryDy=0;fillColor=#ffe6cc;strokeColor=#d79b00;" edge="1" parent="1" source="2fpuWWFfcm2B_iFlqA9m-36" target="2fpuWWFfcm2B_iFlqA9m-19">
          <mxGeometry relative="1" as="geometry">
            <Array as="points">
              <mxPoint x="405" y="575" />
            </Array>
          </mxGeometry>
        </mxCell>
        <mxCell id="2fpuWWFfcm2B_iFlqA9m-47" style="edgeStyle=orthogonalEdgeStyle;rounded=0;orthogonalLoop=1;jettySize=auto;html=1;entryX=0;entryY=0.5;entryDx=0;entryDy=0;fillColor=#ffe6cc;strokeColor=#d79b00;" edge="1" parent="1" source="2fpuWWFfcm2B_iFlqA9m-36" target="2fpuWWFfcm2B_iFlqA9m-44">
          <mxGeometry relative="1" as="geometry" />
        </mxCell>
        <mxCell id="2fpuWWFfcm2B_iFlqA9m-48" style="edgeStyle=orthogonalEdgeStyle;rounded=0;orthogonalLoop=1;jettySize=auto;html=1;entryX=0;entryY=0.5;entryDx=0;entryDy=0;fillColor=#ffe6cc;strokeColor=#d79b00;" edge="1" parent="1" source="2fpuWWFfcm2B_iFlqA9m-36" target="2fpuWWFfcm2B_iFlqA9m-45">
          <mxGeometry relative="1" as="geometry" />
        </mxCell>
        <mxCell id="2fpuWWFfcm2B_iFlqA9m-50" style="edgeStyle=orthogonalEdgeStyle;rounded=0;orthogonalLoop=1;jettySize=auto;html=1;exitX=0.5;exitY=0.5;exitDx=0;exitDy=0;exitPerimeter=0;entryX=0.5;entryY=0;entryDx=0;entryDy=0;fillColor=#ffe6cc;strokeColor=#d79b00;" edge="1" parent="1" source="2fpuWWFfcm2B_iFlqA9m-36" target="2fpuWWFfcm2B_iFlqA9m-49">
          <mxGeometry relative="1" as="geometry">
            <Array as="points">
              <mxPoint x="120" y="680" />
            </Array>
          </mxGeometry>
        </mxCell>
        <mxCell id="2fpuWWFfcm2B_iFlqA9m-52" style="edgeStyle=orthogonalEdgeStyle;rounded=0;orthogonalLoop=1;jettySize=auto;html=1;exitX=0.5;exitY=0.5;exitDx=0;exitDy=0;exitPerimeter=0;entryX=0;entryY=0.5;entryDx=0;entryDy=0;fillColor=#ffe6cc;strokeColor=#d79b00;" edge="1" parent="1" source="2fpuWWFfcm2B_iFlqA9m-36" target="2fpuWWFfcm2B_iFlqA9m-51">
          <mxGeometry relative="1" as="geometry">
            <Array as="points">
              <mxPoint x="170" y="680" />
              <mxPoint x="170" y="810" />
            </Array>
          </mxGeometry>
        </mxCell>
        <mxCell id="2fpuWWFfcm2B_iFlqA9m-36" value="Менеджер" style="shape=umlActor;verticalLabelPosition=bottom;verticalAlign=top;html=1;outlineConnect=0;fillColor=#ffe6cc;strokeColor=#d79b00;" vertex="1" parent="1">
          <mxGeometry x="70" y="650" width="30" height="60" as="geometry" />
        </mxCell>
        <mxCell id="2fpuWWFfcm2B_iFlqA9m-44" value="Добавление пользователя" style="ellipse;whiteSpace=wrap;html=1;fontSize=11;" vertex="1" parent="1">
          <mxGeometry x="140" y="590" width="80" height="60" as="geometry" />
        </mxCell>
        <mxCell id="2fpuWWFfcm2B_iFlqA9m-45" value="Добавление товара" style="ellipse;whiteSpace=wrap;html=1;fontSize=11;" vertex="1" parent="1">
          <mxGeometry x="190" y="700" width="80" height="60" as="geometry" />
        </mxCell>
        <mxCell id="2fpuWWFfcm2B_iFlqA9m-49" value="Добавление категории" style="ellipse;whiteSpace=wrap;html=1;fontSize=11;" vertex="1" parent="1">
          <mxGeometry x="80" y="760" width="80" height="60" as="geometry" />
        </mxCell>
        <mxCell id="2fpuWWFfcm2B_iFlqA9m-51" value="&lt;font style=&quot;font-size: 11px;&quot;&gt;Консультирование&lt;/font&gt;" style="ellipse;whiteSpace=wrap;html=1;" vertex="1" parent="1">
          <mxGeometry x="200" y="780" width="100" height="60" as="geometry" />
        </mxCell>
        <mxCell id="2fpuWWFfcm2B_iFlqA9m-55" style="edgeStyle=orthogonalEdgeStyle;rounded=0;orthogonalLoop=1;jettySize=auto;html=1;entryX=0.5;entryY=1;entryDx=0;entryDy=0;fillColor=#e1d5e7;strokeColor=#9673a6;" edge="1" parent="1" source="2fpuWWFfcm2B_iFlqA9m-53" target="2fpuWWFfcm2B_iFlqA9m-18">
          <mxGeometry relative="1" as="geometry" />
        </mxCell>
        <mxCell id="2fpuWWFfcm2B_iFlqA9m-56" style="edgeStyle=orthogonalEdgeStyle;rounded=0;orthogonalLoop=1;jettySize=auto;html=1;entryX=0;entryY=0.5;entryDx=0;entryDy=0;fillColor=#e1d5e7;strokeColor=#9673a6;" edge="1" parent="1" source="2fpuWWFfcm2B_iFlqA9m-53" target="2fpuWWFfcm2B_iFlqA9m-19">
          <mxGeometry relative="1" as="geometry">
            <Array as="points">
              <mxPoint x="380" y="880" />
              <mxPoint x="380" y="575" />
            </Array>
          </mxGeometry>
        </mxCell>
        <mxCell id="2fpuWWFfcm2B_iFlqA9m-65" style="edgeStyle=orthogonalEdgeStyle;rounded=0;orthogonalLoop=1;jettySize=auto;html=1;entryX=1.013;entryY=0.443;entryDx=0;entryDy=0;entryPerimeter=0;fillColor=#e1d5e7;strokeColor=#9673a6;" edge="1" parent="1" source="2fpuWWFfcm2B_iFlqA9m-53" target="2fpuWWFfcm2B_iFlqA9m-64">
          <mxGeometry relative="1" as="geometry">
            <Array as="points">
              <mxPoint x="379" y="880" />
              <mxPoint x="379" y="741" />
            </Array>
          </mxGeometry>
        </mxCell>
        <mxCell id="2fpuWWFfcm2B_iFlqA9m-66" style="edgeStyle=orthogonalEdgeStyle;rounded=0;orthogonalLoop=1;jettySize=auto;html=1;entryX=1;entryY=0.5;entryDx=0;entryDy=0;fillColor=#e1d5e7;strokeColor=#9673a6;" edge="1" parent="1" source="2fpuWWFfcm2B_iFlqA9m-53" target="2fpuWWFfcm2B_iFlqA9m-58">
          <mxGeometry relative="1" as="geometry" />
        </mxCell>
        <mxCell id="2fpuWWFfcm2B_iFlqA9m-67" style="edgeStyle=orthogonalEdgeStyle;rounded=0;orthogonalLoop=1;jettySize=auto;html=1;entryX=1;entryY=0.5;entryDx=0;entryDy=0;fillColor=#e1d5e7;strokeColor=#9673a6;" edge="1" parent="1" source="2fpuWWFfcm2B_iFlqA9m-53" target="2fpuWWFfcm2B_iFlqA9m-59">
          <mxGeometry relative="1" as="geometry" />
        </mxCell>
        <mxCell id="2fpuWWFfcm2B_iFlqA9m-68" style="edgeStyle=orthogonalEdgeStyle;rounded=0;orthogonalLoop=1;jettySize=auto;html=1;entryX=0.481;entryY=-0.073;entryDx=0;entryDy=0;entryPerimeter=0;fillColor=#e1d5e7;strokeColor=#9673a6;" edge="1" parent="1" source="2fpuWWFfcm2B_iFlqA9m-53" target="2fpuWWFfcm2B_iFlqA9m-60">
          <mxGeometry relative="1" as="geometry">
            <mxPoint x="414" y="960" as="targetPoint" />
          </mxGeometry>
        </mxCell>
        <mxCell id="2fpuWWFfcm2B_iFlqA9m-69" style="edgeStyle=orthogonalEdgeStyle;rounded=0;orthogonalLoop=1;jettySize=auto;html=1;entryX=0.5;entryY=0;entryDx=0;entryDy=0;fillColor=#e1d5e7;strokeColor=#9673a6;" edge="1" parent="1" source="2fpuWWFfcm2B_iFlqA9m-53" target="2fpuWWFfcm2B_iFlqA9m-63">
          <mxGeometry relative="1" as="geometry" />
        </mxCell>
        <mxCell id="2fpuWWFfcm2B_iFlqA9m-70" style="edgeStyle=orthogonalEdgeStyle;rounded=0;orthogonalLoop=1;jettySize=auto;html=1;entryX=0;entryY=0.5;entryDx=0;entryDy=0;fillColor=#e1d5e7;strokeColor=#9673a6;" edge="1" parent="1" source="2fpuWWFfcm2B_iFlqA9m-53" target="2fpuWWFfcm2B_iFlqA9m-61">
          <mxGeometry relative="1" as="geometry">
            <Array as="points">
              <mxPoint x="480" y="880" />
              <mxPoint x="480" y="835" />
            </Array>
          </mxGeometry>
        </mxCell>
        <mxCell id="2fpuWWFfcm2B_iFlqA9m-71" style="edgeStyle=orthogonalEdgeStyle;rounded=0;orthogonalLoop=1;jettySize=auto;html=1;entryX=0.5;entryY=0;entryDx=0;entryDy=0;fillColor=#e1d5e7;strokeColor=#9673a6;" edge="1" parent="1" source="2fpuWWFfcm2B_iFlqA9m-53" target="2fpuWWFfcm2B_iFlqA9m-62">
          <mxGeometry relative="1" as="geometry" />
        </mxCell>
        <mxCell id="2fpuWWFfcm2B_iFlqA9m-53" value="Программист&lt;br&gt;" style="shape=umlActor;verticalLabelPosition=bottom;verticalAlign=top;html=1;outlineConnect=0;fillColor=#e1d5e7;strokeColor=#9673a6;" vertex="1" parent="1">
          <mxGeometry x="399" y="850" width="30" height="60" as="geometry" />
        </mxCell>
        <mxCell id="2fpuWWFfcm2B_iFlqA9m-58" value="Настройка &lt;br style=&quot;font-size: 11px;&quot;&gt;ПК" style="ellipse;whiteSpace=wrap;html=1;fontSize=11;" vertex="1" parent="1">
          <mxGeometry x="250" y="860" width="70" height="40" as="geometry" />
        </mxCell>
        <mxCell id="2fpuWWFfcm2B_iFlqA9m-59" value="Сборка ПК" style="ellipse;whiteSpace=wrap;html=1;fontSize=11;" vertex="1" parent="1">
          <mxGeometry x="290" y="940" width="60" height="50" as="geometry" />
        </mxCell>
        <mxCell id="2fpuWWFfcm2B_iFlqA9m-60" value="Установка приложений" style="ellipse;whiteSpace=wrap;html=1;fontSize=11;" vertex="1" parent="1">
          <mxGeometry x="380" y="970" width="70" height="50" as="geometry" />
        </mxCell>
        <mxCell id="2fpuWWFfcm2B_iFlqA9m-61" value="Ремонт ПК" style="ellipse;whiteSpace=wrap;html=1;fontSize=11;" vertex="1" parent="1">
          <mxGeometry x="550" y="810" width="60" height="50" as="geometry" />
        </mxCell>
        <mxCell id="2fpuWWFfcm2B_iFlqA9m-62" value="Добавление товара" style="ellipse;whiteSpace=wrap;html=1;fontSize=11;" vertex="1" parent="1">
          <mxGeometry x="590" y="900" width="70" height="55" as="geometry" />
        </mxCell>
        <mxCell id="2fpuWWFfcm2B_iFlqA9m-63" value="Редактирование товарных карточек" style="ellipse;whiteSpace=wrap;html=1;fontSize=11;" vertex="1" parent="1">
          <mxGeometry x="480" y="940" width="100" height="65" as="geometry" />
        </mxCell>
        <mxCell id="2fpuWWFfcm2B_iFlqA9m-64" value="Повышение посещаемости сайта" style="ellipse;whiteSpace=wrap;html=1;fontSize=11;" vertex="1" parent="1">
          <mxGeometry x="280" y="705" width="80" height="70" as="geometry" />
        </mxCell>
      </root>
    </mxGraphModel>
  </diagram>
</mxfile>
